<svg xmlns="http://www.w3.org/2000/svg" viewBox="0 0 760 112" role="img" aria-labelledby="title desc">
<title id="title">Rishiraj Upadhyay</title><desc id="desc">Rishiraj Upadhyay — Software Engineer, Technical Lead and AI</desc>
<defs><linearGradient id="blue" x1="0" y1="0" x2="1" y2="1"><stop offset="0" stop-color="#20d8ff"/><stop offset="1" stop-color="#2458ff"/></linearGradient></defs>
<g transform="translate(4 8)"><rect width="96" height="96" rx="22" fill="#0d1422" stroke="#24314a" stroke-width="2"/><path d="M22 72V28h31c15 0 25 7 25 20 0 9-5 15-13 19l16 17H62L47 64H37v8H22Zm15-29v9h14c7 0 11-2 11-5s-4-4-11-4H37Z" fill="#f4f6fb"/><path d="M51 28h21v31c0 11-5 18-14 18-7 0-12-3-16-8l-10-13h18l5 6c2 2 3 1 3-3V28Z" fill="url(#blue)"/></g>
<path d="M124 18v76" stroke="#20d8ff" stroke-width="2"/>
<g transform="translate(150 16)" font-family="Arial,Helvetica,sans-serif"><text x="0" y="34" font-size="28" font-weight="800" letter-spacing="1" fill="#f4f6fb">RISHIRAJ</text><text x="174" y="34" font-size="28" font-weight="800" letter-spacing="1" fill="#20bfff">UPADHYAY</text><text x="0" y="62" font-size="11" font-weight="600" letter-spacing="2" fill="#aeb7c8">SOFTWARE ENGINEER</text><text x="166" y="62" font-size="11" font-weight="700" fill="#20d8ff">•</text><text x="184" y="62" font-size="11" font-weight="600" letter-spacing="2" fill="#aeb7c8">TECHNICAL LEAD</text><text x="352" y="62" font-size="11" font-weight="700" fill="#20d8ff">•</text><text x="370" y="62" font-size="11" font-weight="600" letter-spacing="2" fill="#aeb7c8">AI</text><path d="M0 82h52" stroke="url(#blue)" stroke-width="3" stroke-linecap="round"/></g>
</svg>